# xmcd
#
# Track frame offsets:
#	150
#	14259
#	31122
#	42143
#	64382
#	72884
#	83721
#	101358
#	113010
#	126286
#	146619
#	166913
#	180365
#	193608
#	207723
#	227106
#	240962
#	259532
#	271623
#	286020
#	295364
#	308135
#	323255
#	339397
#
# Disc length: 4778 seconds
#
# Revision: 0
# Processed by: cddbd v1.5.2PL0 Copyright (c) Steve Scherf et al.
# Submitted via: audiograbber 1.83.01
#
DISCID=4212a818
DTITLE=Bennys Udvalgte Country - Bennys Udvalgte Country 55
DYEAR=2004
DGENRE=Country
TTITLE0=Tying Knots In The Devils Tail -Michael Martin Murphey
TTITLE1=I Just Call To Say I Love You (Live) -Freddy Fender
TTITLE2=Coloured Aristocrate Soldiers Joy -Bull Milk
TTITLE3=How Do I Live -LeeAnn Rimes
TTITLE4=Your Monkey Won´t Be Home Tonight -Buck Owens
TTITLE5=Dance With The One That Brought You -Shania Twain
TTITLE6=Nothing Scares The Devil Out Of Me Brad Kepler
TTITLE7=Stand By Your Man -Tina Turner
TTITLE8=Help Me Make It Trough The Night -Willie Nelson
TTITLE9=Remember When -Alan Jackson
TTITLE10=Sunday Morning Comming Down -Kris Kristofferson
TTITLE11=Forgiving You Was Easy -Willie Nelson
TTITLE12=2062 -Gina Sterling
TTITLE13=Always Wanting You -Merle Haggard
TTITLE14=When You Say Nothing At All -Alison Krauss
TTITLE15=Just Because I´m A Womman -Dolly parton
TTITLE16=The Streets Of Laredo -Michael Martin Murphy 
TTITLE17=The Goo Old Days (Are Here Again) -Buck Owens
TTITLE18=The Long Black Veil -Don Williams
TTITLE19=Loving Cajun Style -Freddy Fender
TTITLE20=It Must Be Love -Alan Jackson
TTITLE21=The Blizzard -Jim Reeves
TTITLE22=Love Gets Me Every Time -Shania Twain 
TTITLE23=Alright, I´m Wrong -Dwight Yoakam
EXTD=
EXTT0=
EXTT1=
EXTT2=
EXTT3=
EXTT4=
EXTT5=
EXTT6=
EXTT7=
EXTT8=
EXTT9=
EXTT10=
EXTT11=
EXTT12=
EXTT13=
EXTT14=
EXTT15=
EXTT16=
EXTT17=
EXTT18=
EXTT19=
EXTT20=
EXTT21=
EXTT22=
EXTT23=
PLAYORDER=
